# xmcd
# 
# Track frame offsets:
#     150
#     23688
#     46419
#     68547
#     81550
#     100723
#     121490
#     140371
#     157788
#     179138
#     196205
#     212929
#     231529
#     245194
#     261841
#     282985
#     304598
# 
# Disc length: 4307
# 
# Revision: 1
# Processed by: cddbd v1.5.2PL0 Copyright (c) Steve Scherf et al.
# Submitted via: BonkEnc v1.0.15
# 
DISCID=f910d111
DTITLE=BORIS NOVKOVIĆ - Zlatna kolekcija - CD 2
DYEAR=2005
DGENRE=Zabavni
TTITLE0=U dobru i zlu
TTITLE1=Bijeli golub
TTITLE2=Sve mijenja se
TTITLE3=Pjesma moja to si ti
TTITLE4=Daleko (duet Kemal Monteno)
TTITLE5=Sve gubi sjaj
TTITLE6=Za sve one divne žene
TTITLE7=Kavkaz, Blato, Kutjevo
TTITLE8=Branim se
TTITLE9=Prodala me ti
TTITLE10=Plus pedeset i minus dva
TTITLE11=Pahulja na dlanu
TTITLE12=Elois
TTITLE13=Zlatna jabuka
TTITLE14=Pijesak
TTITLE15='Ko je kriv (duet Severina)
TTITLE16='Ko sam bez tebe
EXTD=
EXTT0=
EXTT1=
EXTT2=
EXTT3=
EXTT4=
EXTT5=
EXTT6=
EXTT7=
EXTT8=
EXTT9=
EXTT10=
EXTT11=
EXTT12=
EXTT13=
EXTT14=
EXTT15=
EXTT16=
PLAYORDER=
